<svg xmlns="http://www.w3.org/2000/svg" viewBox="0 0 900 200" width="900" height="200">
  <defs>
    <marker id="arrow" viewBox="0 0 10 10" refX="9" refY="5" markerWidth="6" markerHeight="6" orient="auto-start-auto">
      <path d="M 0 0 L 10 5 L 0 10 z" fill="#64748b"/>
    </marker>
  </defs>
  <rect width="900" height="200" rx="12" fill="#0a0e17"/>
  <!-- Nodes -->
  <rect x="20" y="60" width="120" height="80" rx="8" fill="#1f4e79" opacity="0.25" stroke="#1f4e79" stroke-width="1.5"/>
  <text x="80" y="95" text-anchor="middle" fill="#5b9bd5" font-family="Inter,sans-serif" font-size="13" font-weight="700">Legal</text>
  <text x="80" y="115" text-anchor="middle" fill="#94a3b8" font-family="Inter,sans-serif" font-size="10">L1 · Authority</text>

  <rect x="170" y="60" width="120" height="80" rx="8" fill="#2e7d32" opacity="0.25" stroke="#2e7d32" stroke-width="1.5"/>
  <text x="230" y="95" text-anchor="middle" fill="#66bb6a" font-family="Inter,sans-serif" font-size="13" font-weight="700">Custody</text>
  <text x="230" y="115" text-anchor="middle" fill="#94a3b8" font-family="Inter,sans-serif" font-size="10">L2 · Protection</text>

  <rect x="320" y="60" width="120" height="80" rx="8" fill="#c9a227" opacity="0.25" stroke="#c9a227" stroke-width="1.5"/>
  <text x="380" y="95" text-anchor="middle" fill="#ffd54f" font-family="Inter,sans-serif" font-size="13" font-weight="700">XRPL</text>
  <text x="380" y="115" text-anchor="middle" fill="#94a3b8" font-family="Inter,sans-serif" font-size="10">L3 · Settlement</text>

  <rect x="470" y="60" width="120" height="80" rx="8" fill="#6a1b9a" opacity="0.25" stroke="#6a1b9a" stroke-width="1.5"/>
  <text x="530" y="95" text-anchor="middle" fill="#ce93d8" font-family="Inter,sans-serif" font-size="13" font-weight="700">Automation</text>
  <text x="530" y="115" text-anchor="middle" fill="#94a3b8" font-family="Inter,sans-serif" font-size="10">L5 · Scaling</text>

  <rect x="620" y="60" width="120" height="80" rx="8" fill="#2f2f2f" opacity="0.5" stroke="#555" stroke-width="1.5"/>
  <text x="680" y="95" text-anchor="middle" fill="#bdbdbd" font-family="Inter,sans-serif" font-size="13" font-weight="700">Evidence</text>
  <text x="680" y="115" text-anchor="middle" fill="#94a3b8" font-family="Inter,sans-serif" font-size="10">L6 · Proof</text>

  <rect x="770" y="60" width="110" height="80" rx="8" fill="#0d47a1" opacity="0.25" stroke="#42a5f5" stroke-width="1.5"/>
  <text x="825" y="95" text-anchor="middle" fill="#42a5f5" font-family="Inter,sans-serif" font-size="13" font-weight="700">Dashboards</text>
  <text x="825" y="115" text-anchor="middle" fill="#94a3b8" font-family="Inter,sans-serif" font-size="10">Reporting</text>

  <!-- Arrows -->
  <line x1="140" y1="100" x2="170" y2="100" stroke="#64748b" stroke-width="2" marker-end="url(#arrow)"/>
  <line x1="290" y1="100" x2="320" y2="100" stroke="#64748b" stroke-width="2" marker-end="url(#arrow)"/>
  <line x1="440" y1="100" x2="470" y2="100" stroke="#64748b" stroke-width="2" marker-end="url(#arrow)"/>
  <line x1="590" y1="100" x2="620" y2="100" stroke="#64748b" stroke-width="2" marker-end="url(#arrow)"/>
  <line x1="740" y1="100" x2="770" y2="100" stroke="#64748b" stroke-width="2" marker-end="url(#arrow)"/>

  <text x="450" y="180" text-anchor="middle" fill="#64748b" font-family="Inter,sans-serif" font-size="11">OPTKAS Sovereign Platform — End-to-End Data Flow</text>
</svg>
